<svg xmlns="http://www.w3.org/2000/svg" width="674.762" height="208" viewBox="0 0 674.762 208"><g transform="translate(-366.499 -5309.904)"><text transform="translate(366.499 5461.904)" fill="#ddd" font-size="152" font-family="AvenirNext-Regular, Avenir Next"><tspan x="0" y="0">SPEA</tspan></text><g transform="translate(758 5357)"><g transform="translate(0 94) rotate(-90)" fill="none" stroke="#ddd" stroke-width="11"><circle cx="47" cy="47" r="47" stroke="none"/><circle cx="47" cy="47" r="41.5" fill="none"/></g><g transform="translate(97.857 73.068) rotate(-90)" fill="none"><path d="M0,0S12.955,6.941,25.71,6.941,51.021,0,51.021,0L44.868,149.256H7.2Z" stroke="none"/><path d="M 11.78974914550781 16.10321044921875 L 17.68350982666016 138.2555236816406 L 34.3121223449707 138.2555236816406 L 39.34548950195312 16.15289306640625 C 35.15632629394531 17.19718933105469 30.49332427978516 17.94084167480469 25.70999908447266 17.94084167480469 C 20.8517894744873 17.94084167480469 16.07939910888672 17.17266845703125 11.78974914550781 16.10321044921875 M 0 -1.52587890625e-05 C 0 -1.52587890625e-05 12.9548225402832 6.940841674804688 25.70999908447266 6.940841674804688 C 38.46517562866211 6.940841674804688 51.02070236206055 -1.52587890625e-05 51.02070236206055 -1.52587890625e-05 L 44.86802673339844 149.2555236816406 L 7.201469421386719 149.2555236816406 L 0 -1.52587890625e-05 Z" stroke="none" fill="#ddd"/></g><g transform="translate(253.259 66.281) rotate(-90)" fill="none"><path d="M0,0H37.447L29.592,30H7.833Z" stroke="none"/><path d="M 14.24075317382812 11.00000762939453 L 16.32982444763184 19.00130844116211 L 21.10094261169434 19.00130844116211 L 23.19586944580078 11.00000762939453 L 14.24075317382812 11.00000762939453 M -3.814697265625e-06 7.62939453125e-06 L 37.44669723510742 7.62939453125e-06 L 29.5916633605957 30.00130653381348 L 7.833080291748047 30.00130653381348 L -3.814697265625e-06 7.62939453125e-06 Z" stroke="none" fill="#ddd"/></g><g transform="translate(56 85) rotate(-90)" fill="none" stroke="#ddd" stroke-width="11"><rect width="79" height="12" stroke="none"/><rect x="5.5" y="5.5" width="68" height="1" fill="none"/></g></g></g></svg>