<svg xmlns="http://www.w3.org/2000/svg" width="837" height="160" viewBox="0 0 837 160"><g transform="translate(-320 -910)"><text transform="translate(320 1027)" fill="#ddd" font-size="117" font-family="AvenirNext-Regular, Avenir Next"><tspan x="0" y="0" xml:space="preserve">SC    REB    ARD</tspan></text><g transform="translate(573.807 937.572) rotate(90)"><ellipse cx="9.9" cy="15.827" rx="9.9" ry="15.827" transform="translate(19.801 63.351) rotate(-180)" fill="#ddd"/><ellipse cx="9.9" cy="15.827" rx="9.9" ry="15.827" transform="translate(73.055 32.616)" fill="#ddd"/><ellipse cx="9.804" cy="16.051" rx="9.804" ry="16.051" transform="translate(18.785 33.032) rotate(-120)" fill="#ddd"/><ellipse cx="9.808" cy="16.045" rx="9.808" ry="16.045" transform="translate(74.004 63.714) rotate(60)" fill="#ddd"/><ellipse cx="9.757" cy="16.026" rx="9.757" ry="16.026" transform="translate(9.394 78.99) rotate(-60)" fill="#ddd"/><ellipse cx="9.759" cy="16.022" rx="9.759" ry="16.022" transform="translate(85.657 16.164) rotate(120)" fill="#ddd"/></g><g transform="translate(902.807 937.572) rotate(90)"><ellipse cx="9.9" cy="15.827" rx="9.9" ry="15.827" transform="translate(19.801 63.351) rotate(-180)" fill="#ddd"/><ellipse cx="9.9" cy="15.827" rx="9.9" ry="15.827" transform="translate(73.055 32.616)" fill="#ddd"/><ellipse cx="9.804" cy="16.051" rx="9.804" ry="16.051" transform="translate(18.785 33.032) rotate(-120)" fill="#ddd"/><ellipse cx="9.808" cy="16.045" rx="9.808" ry="16.045" transform="translate(74.004 63.714) rotate(60)" fill="#ddd"/><ellipse cx="9.757" cy="16.026" rx="9.757" ry="16.026" transform="translate(9.394 78.99) rotate(-60)" fill="#ddd"/><ellipse cx="9.759" cy="16.022" rx="9.759" ry="16.022" transform="translate(85.657 16.164) rotate(120)" fill="#ddd"/></g></g></svg>