<svg xmlns="http://www.w3.org/2000/svg" width="29.811" height="28" viewBox="0 0 29.811 28"><g transform="translate(0 0)"><path d="M13.384,9.292c8.189-2.75,15.507-2.2,16.348,1.236S24.615,18.98,16.427,21.735.916,23.934.079,20.5,5.2,12.043,13.384,9.292Z" fill="#d4d4d4" fill-rule="evenodd"/><path d="M2.733.034c.853-.327,3.371,1.8,4.888,2.857a12.107,12.107,0,0,1,5.46-.713,8.567,8.567,0,0,1,2.665.832c.8-.548,5.117-3.889,5.4-2.738a6.632,6.632,0,0,1,.064,2.56c-.229,1.523-.622,3.09-1.019,4.644a17.958,17.958,0,0,0-.633,2.2,8.61,8.61,0,0,0,.507,3.094,5.823,5.823,0,0,0,1.018,2.56c3.38,2.628,6.359,6.41,6.984,8.278a1.581,1.581,0,0,1-.38,1.847A2.382,2.382,0,0,1,24.7,25.4a17.182,17.182,0,0,1-2.032-1.965A20,20,0,0,0,21.146,22a.955.955,0,0,0-.566-.28,4.814,4.814,0,0,0-1.272.3,29.771,29.771,0,0,1-3.752.7c.486.59,1.526,1.422,2.16,2.143a2.926,2.926,0,0,1,.887,1.788c.012.645-.727,1.57-2.667,1.307a14.506,14.506,0,0,1-2.729-1.074C5.3,22.185,4.967,17.668,4.064,10.027,3.819,7.92,2.859,5.272,2.479,2.95,2.323,1.974,1.955.36,2.733.034Z" fill="#fff" fill-rule="evenodd"/><path d="M17.162,8.325c-.4.046-.727.772-1.187,1.107-.68.5-1.686.306-1.631-.08s.27-.416.862-.505,1.614-.556,1.3-2.242c-.28-1.473-1.935-1.142-1.935-1.142a1.3,1.3,0,0,0-1.027-.6c-.723-.055-1.323.883-1.323.883a.463.463,0,0,1-.7-.3,1.107,1.107,0,0,0-1.352-.505A1.5,1.5,0,0,0,9.134,6.52a1.276,1.276,0,0,0,1.343.913c.486-.034.8.23.753.458-.072.366-1.053.629-2,.085a1.909,1.909,0,0,1-.756-1.358l.034-.437A1.963,1.963,0,0,0,6.645,7.458C6.3,8.736,7.17,9.36,7.69,9.31c.346-.034.084-.513.5-.908a.46.46,0,0,1,.617.025.393.393,0,0,1-.148.6c-.245.14-.427.773.266,1.172.312.178-.165,1.125-.718.4-.326-.42-.292-.607-.638-.569a1.474,1.474,0,0,1-.837-.352c-.068-.051-.473.165-.317.637s.135,1.1,1.72,1.154c.33.017.44.073.507.336a1.457,1.457,0,0,0,2.024.82.957.957,0,0,0-.047-1.81.48.48,0,0,1-.266-.76c.13-.135.266-.084.613.056.992.408,1.453,1.651.807,2.17-.27.216.278.577.73.64s2.2-.11,2.388-1.087a4.527,4.527,0,0,0,.042-.938c.017-.45.672-.505.689-.208s-.009.365.13.493c.381.344,1.4-.1,1.695-.781s.224-2.144-.287-2.08Zm-4.53,1.91c-.181,0-.422-.263-.291-.412a1.506,1.506,0,0,0,.325-1.091c-.03-.386-.253-.535-.266-.76a.4.4,0,0,1,.317-.378c.384-.123.672.752.642,1.5-.017.6-.313,1.138-.727,1.138Zm.41-4.445c.135-.356.36-.322.452-.314s.351.1.338.34c0,0-.14.721.14.946a1.461,1.461,0,0,0,1.111.2.353.353,0,0,1,.093.624,1.579,1.579,0,0,1-1.7-.217A1.628,1.628,0,0,1,13.042,5.79Z"/></g></svg>